<svg aria-hidden="true" style="position:absolute;width:0;height:0;overflow:hidden" xmlns="http://www.w3.org/2000/svg">
    <defs>
        <symbol id="icon-antenna" viewBox="0 0 32 32">
            <path fill="#212121" style="fill:var(--color1, #212121)"
                d="m30.8 22.1-8.5-8.5 1-4.6.7.1a2.2 2.2 0 1 0-2-1.4l-5 .6L9 .2a.5.5 0 0 0-.4-.2c-.1 0-.3 0-.4.2L6.7 1.7a.5.5 0 0 0 0 .7l.8.8A14.9 14.9 0 0 0 10 21l.2.1v6.7H3.6a2.7 2.7 0 0 0-2.6 2.7v1c0 .4.2.6.5.6h24.5c.3 0 .6-.2.6-.5v-1.1c0-1.5-1.2-2.7-2.7-2.7h-6.4V25a15 15 0 0 0 10.2-1.5h-.1l.8.9.4.1.4-.1 1.5-1.5a.5.5 0 0 0 0-.8zM23.3 6.2c.2-.2.4-.3.7-.3a1 1 0 0 1 0 2.2 1 1 0 0 1-.7-1.9zM22 9.7l-.6 3-1.1-1.2L22 9.7zm-.6-.9-1.9 2L18 9.2l3.4-.5zm2.6 20c.9 0 1.6.7 1.6 1.6v.5H2.1v-.5c0-.9.8-1.6 1.6-1.6H24zm-7.5-2.1v1h-5.3v-1h5.3zm-5.3-1.1v-4c0-1.3 1.2-2.4 2.7-2.4s2.6 1 2.6 2.3v4.1h-5.3zm6.4-1.7v-2.4c0-1.8-1.7-3.4-3.7-3.4-1.4 0-2.6.7-3.3 1.8A13.8 13.8 0 0 1 8.3 4V4L27 22.7a13.6 13.6 0 0 1-9.4 1.2h.1zm11.3-.7L7.9 2l.7-.7 8 8 13 13.2-.7.7z" />
            <path fill="#2196f3" style="fill:var(--color2, #2196f3)"
                d="M13.9 20.3a1.6 1.6 0 0 0 0 3.2 1.6 1.6 0 0 0 0-3.2zm.3 2-.3.1a.5.5 0 0 1 0-1 .5.5 0 0 1 .3.8z" />
        </symbol>
        <symbol id="icon-astronaut" viewBox="0 0 32 32">
            <path fill="#2196f3" style="fill:var(--color2, #2196f3)"
                d="M32 4.5c0-.2-.3-.3-.5-.3l-1.9-.3-.8-1.7c-.2-.4-.8-.4-1 0L27 3.9l-2 .3a.5.5 0 0 0-.2.9L26 6.4l-.3 2c0 .1 0 .3.2.4.2.2.4.2.6 0l1.7-.8 1.7.9h.3a.5.5 0 0 0 .5-.6l-.3-1.9 1.3-1.3a.5.5 0 0 0 .2-.6zM29.5 6c-.1 0-.2.2-.1.4l.1 1.1-1-.5a.5.5 0 0 0-.5 0l-1 .5.2-1v-.2l-.1-.3-.8-.8 1.1-.2c.2 0 .3-.1.4-.3l.5-1 .5 1c0 .2.2.3.4.3l1.1.2-.8.8zm-3.4 14.6h-1v1h1v-1zm0 2.2h-1v1h1v-1zm1.1-1.1h-1v1h1v-1zm-2.1 0H24v1h1v-1zm-2.7 4.8h-1v1h1v-1zm0 2.1h-1v1h1v-1zm1-1h-1v1h1v-1zm-2 0h-1.1v1h1v-1zM16 24.3h-1v1h1v-1zm0 2h-1v1.2h1v-1.1zm1-1h-1v1h1v-1zm-2 0h-1.1v1h1v-1zM5.8 6.1H4.8v1h1v-1zm0 2.2H4.8v1h1v-1zm1-1.1H6v1h1v-1zm-2.1 0h-1v1h1v-1z" />
            <path fill="#212121" style="fill:var(--color1, #212121)"
                d="M24.7 14.2c-.3-.4-.7-.7-1.2-.7h-.2c-.4 0-.8 0-1.1.3l-1.3 1-1.9 1.4-1.3-.6a7 7 0 0 0-2.9-13.2A7 7 0 0 0 9 13H6l-3.2 1.6-2 1A1.8 1.8 0 0 0 .2 18c.2.4.6.7 1 .8l.6.1c.3 0 .6 0 .8-.2L4 18l2.3-1.2h1.3l-5.4 5.4-1.3 1.3c-.3.3-.5.8-.5 1.2 0 1 .7 1.7 1.6 1.7.5 0 .9-.2 1.2-.5l1.3-1.3 1.8-1.3.9.9-3.1 3c-.3.4-.5.8-.5 1.3A1.7 1.7 0 0 0 5.2 30c.5 0 .9-.1 1.2-.5l4.5-4.4 5.2-5.7 3.5.5a.5.5 0 0 0 .2 0l.1-.1 3.3-2.1 1.3-1.3a1.8 1.8 0 0 0 .2-2.3zM2.1 17.8a.7.7 0 0 1-.5 0 .7.7 0 0 1-.2-1.2l1.3-.7.3 1 .1.3-1 .6zm3.5-1.9-1.5.8-.3-.7-.2-.5 2-1v1.4zm15.1-6.6c0 1-.2 1.8-.6 2.6l-4.2-2c0-.5-.3-1-.7-1.3l1.4-4.9c2.4.8 4.1 3 4.1 5.6zM9 9.3a5.9 5.9 0 0 1 6.7-5.8L14 8.3c-1 0-1.9.8-1.9 1.8s.9 1.9 1.9 1.9c.7 0 1.3-.4 1.6-1l3.9 1.8A5.9 5.9 0 0 1 8.9 9.3zm6 .8a.8.8 0 0 1-1.6 0c0-.4.3-.8.8-.8s.8.4.8.8zm-12.4 15a.6.6 0 0 1-.9 0 .6.6 0 0 1 0-.8l1-1 .8.9-1 1zM5.7 29a.6.6 0 0 1-.9 0 .6.6 0 0 1 0-.9l1-1 .8 1-1 .9zm3.5-3.5-1.8 1.8-.9-.9 1.8-1.7.1-.2v-.5h-.1l-1.6-1.7h-.1l-.1-.1H6l-1.8 1.4-.9-1 2.4-2.3 4.4 4.3-1 1zm6.8-7h-.4v.1l-4.8 5.2-4.3-4.2 2.8-2.9a.5.5 0 0 0-.4-.9H6.7v-1.6h3.1a7 7 0 0 0 5 2.2c.5 0 .9 0 1.3-.2l.1.1 2.4 1 .2.7.2 1-3-.5zm4 .2-.3-1.6 1.5-1 .9 1.2-2 1.4zm3.8-2.9-.9.8-.9-1.2.8-.6c.2-.2.4-.2.6-.2a.7.7 0 0 1 .4 1.2z" />
            <path fill="#212121" style="fill:var(--color1, #212121)"
                d="m13.6 18.5-2.1-2a.5.5 0 0 0-.8 0l-2.1 2-.2.4c0 .1 0 .3.2.4l2.1 2.1a.5.5 0 0 0 .8 0l2.1-2.1a.5.5 0 0 0 0-.8zm-2.5 1.8-1.4-1.4 1.4-1.4 1.4 1.4-1.4 1.4zm6-15.2L17 6s1.7.5 1.7 2.2h1.1c0-2-1.7-3-2.5-3.2zm2.6 4.2h-1v1h1v-1z" />
        </symbol>
        <symbol id="icon-brand" viewBox="0 0 43 32">
            <path fill="#afb1b8" style="fill:var(--color3, #afb1b8)"
                d="M3.2 26.4a1 1 0 0 1 .3.7l-.1.4c0 .2-.2.3-.3.4a1.8 1.8 0 0 1-1.1.3H0V24h2c.4 0 .7 0 1 .3l.3.3v.4c.1.3 0 .5-.1.7a1 1 0 0 1-.6.3c.2 0 .5.2.6.4zM1 25.7h.8l.6-.1.1-.2V25l-.1-.2a.8.8 0 0 0-.6-.2H1v1.1zm1.5 1.7.1-.2v-.5l-.1-.2a.9.9 0 0 0-.6-.2H.9v1.2h.9l.6-.1zm4.8.8-1-1.7h-.5v1.7h-1V24h2c.4 0 .8.1 1 .3a1.3 1.3 0 0 1 .5 1c0 .3-.1.6-.3.8-.2.2-.5.4-.8.4l1.1 1.7h-1zM5.7 26h.8c.5 0 .8-.2.8-.7V25l-.2-.2a.9.9 0 0 0-.6-.2h-.8V26zm6.6 1.3h-1.9l-.3.9H9l1.7-4.2h1l1.8 4.2h-1l-.3-.9zm-.3-.6-.7-1.8-.6 1.8H12zm6.6 1.5h-1l-2-2.9v2.9h-.9V24h1l2 2.9v-3h.9v4.3zm5.3-1a2 2 0 0 1-.9.7c-.3.2-.8.3-1.2.3H20V24H21.8c.4 0 .9 0 1.2.2.4.2.7.4.9.8a2.3 2.3 0 0 1 0 2.2zm-1.1-.1c.3-.3.4-.6.4-1s-.1-.8-.4-1a1.7 1.7 0 0 0-1.2-.4H21v2.7h.8c.4 0 .7-.1 1-.3zM12.8.5s12 4.1 11.7 10v10.1s-12-4.1-11.7-10V.6zM35 18.3c2.3-1.5 4.9-2.3 7.6-2.6v-3.1a15.3 15.3 0 0 0-7.6 5.7z" />
            <path fill="#afb1b8" style="fill:var(--color3, #afb1b8)"
                d="M33.7 19.2c1.8-3.4 5-6 8.9-7.3V3S25.6 8.6 26 17.1v14.3l2-.8v-1.4c.4-4 2.4-7.5 5.7-10z" />
            <path fill="#afb1b8" style="fill:var(--color3, #afb1b8)"
                d="m32 24.5.7-3a13.2 13.2 0 0 0-3.6 8.7c1.4-.6 2.5-1.1 3.5-1.7l-.3.2c-.3-1.4-.3-2.8-.2-4.2zm.8 0a12.6 12.6 0 0 0 .2 4v-.2c4.6-2.5 9.8-6.4 9.6-11.1v-.5c-3.3.4-6.4 1.7-8.8 3.8-.5 1.2-1 2.6-1 4z" />
        </symbol>
        <symbol id="icon-clock" viewBox="0 0 32 32">
            <path fill="#212121" style="fill:var(--color1, #212121)"
                d="M31.3 15.3a15.3 15.3 0 1 0-20 14.6H12l.2-.4 4-12.3a2 2 0 1 0-1-3.6l-5-5.1a.6.6 0 0 0-1 .9l5.2 5c-.2.3-.2.6-.2 1 0 .5.3 1 .7 1.4l-3.7 11.7a14 14 0 1 1 10.7-.4h-.1l-.4-1.9a.6.6 0 0 0-1-.3l-3.9 3.4-.2.5c0 .3.2.5.4.6l5 1.6h.1a.6.6 0 0 0 .7-.8l-.4-1.8c5.5-2.4 9.3-7.8 9.3-14v-.1zM16 14.7a.6.6 0 0 1 0 1.2.6.6 0 0 1 0-1.2zm2 14.8 2.3-2 .6 3-2.8-1z" />
            <path fill="#2196f3" style="fill:var(--color2, #2196f3)"
                d="M15.4 3.2v1.3a.6.6 0 0 0 1.2 0V3.2a.6.6 0 1 0-1.2 0zM3.9 14.7a.6.6 0 0 0 0 1.2h1.3a.6.6 0 0 0 0-1.2H3.9zM28 15.9a.6.6 0 0 0 0-1.2h-1.3a.6.6 0 0 0 0 1.2h1.3z" />
        </symbol>
        <symbol id="icon-company" viewBox="0 0 34 32">
            <path fill="#afb1b8" style="fill:var(--color3, #afb1b8)"
                d="M5.6 31.3h.1l.2.2-.5.3-.6.1H4l-.4-.4c-.2-.1-.3-.2-.3-.4l-.2-.6c0-.4.2-.7.5-1l.5-.3h1.2c.2 0 .3.2.5.3l-.2.1H5.3l-.3-.1h-.8a1 1 0 0 0-.6.6v.9l.3.3.3.2H5c.2 0 .4 0 .6-.2zm4.8-.8v.6l-.4.4-.5.3a2 2 0 0 1-1.3 0l-.4-.3c-.2-.1-.3-.3-.3-.4a1.4 1.4 0 0 1 0-1.2 1.3 1.3 0 0 1 .8-.7 2 2 0 0 1 1.2 0l.5.3a1.3 1.3 0 0 1 .4 1zm-.4 0V30a1 1 0 0 0-.6-.6 1.4 1.4 0 0 0-1 0 1 1 0 0 0-.3.2 1 1 0 0 0-.2.4 1.3 1.3 0 0 0 0 .9c0 .2.3.4.5.5h1l.3-.2.2-.3.1-.5zm3.7.5h.1v-.1l1.1-1.7h.5v2.7H15v-2.2l-1 1.7h-.4l-1.1-1.7v2.2H12v-2.7h.4l1.2 1.7zm4-.1v1h-.4v-2.7h1.4l.4.2.2.2v.4c0 .3 0 .5-.2.6a1 1 0 0 1-.4.2h-1zm0-.3h.8l.3-.2.2-.4v-.2l-.2-.2a.9.9 0 0 0-.6-.2h-.5v1.2zm5.6 1.3h-.4v-.1l-.4-.7h-1.4l-.3.7h-.4l1.2-2.6h.4l1.3 2.7zm-2-1h1.1l-.5-1.1v-.3l-.1.1v.2l-.6 1zm3.8-1.7 1.9 2v-2h.3v2.7H27l-1.8-2.1v2h-.4v-2.6h.2zm5.3 1.6v1H30v-1l-1.2-1.6h.5l.8 1.1v.1l.1.1.1-.2.7-1v-.1H31.7l-1.2 1.6zm-16.9-6.2h.6c2.8-1 5.1-2.8 6.8-5.1s2.5-4.9 2.4-7.5l-3-2.7c.5 2.8.2 5.7-1 8.4s-3.1 5.1-5.8 6.9z" />
            <path fill="#afb1b8" style="fill:var(--color3, #afb1b8)"
                d="M12.4 24.5c3-1.8 5-4.2 6.3-7s1.4-6 .5-8.9l-4.4-3.8a16.4 16.4 0 0 1-2.4 19.7zm15-9.4c-.8 3-2.6 5.6-5.2 7.5l-2.4 1.5h-.1c2.1-.5 4-1.4 5.7-2.7s3-3 3.7-4.7L27.3 15z" />
            <path fill="#afb1b8" style="fill:var(--color3, #afb1b8)"
                d="m26.6 14.7-2.5-2.2c0 2.5-.9 5-2.4 7s-3.7 4-6.2 5.2l1.7-.1c2.4-.9 4.5-2.2 6.1-4s2.8-3.7 3.3-6zM12.8 3.2 9.8.5C7 1.5 4.6 3 3 5.1S.5 9.7.5 12.1c0 2.9 1.1 5.6 3 7.8 2 2.2 4.8 3.7 8 4.4 2.7-3 4.4-6.6 4.6-10.4s-1-7.5-3.3-10.7zm20.8 11c0-3.2-1.5-6.4-4.2-8.7s-6.3-3.7-10.1-3.7c-1.9 0-3.7.3-5.3.8h.1l18.6 16.1c.6-1.3 1-2.8 1-4.4z" />
        </symbol>
        <symbol id="icon-diagram" viewBox="0 0 32 32">
            <path fill="#2196f3" style="fill:var(--color2, #2196f3)"
                d="M15 15h1v4.8h-1V15zm4.2 2.1h1v2.7h-1V17zm-8.5 1.6h1v1h-1v-1zm-3.2-.5h1v1.6h-1v-1.6z" />
            <path fill="#212121" style="fill:var(--color1, #212121)"
                d="M1.6 28.3h25.6c.9 0 1.6-.7 1.6-1.6v-2.1c0-1-.7-1.6-1.6-1.6h-.5V9.7l3-2.9.7.2a1.6 1.6 0 1 0-1.5-1l-2.2 2.2V7c0-1-.8-1.6-1.6-1.6H3.7c-.9 0-1.6.7-1.6 1.6v16h-.5c-.9 0-1.6.7-1.6 1.6v2c0 1 .7 1.7 1.6 1.7zM30.4 4.8a.5.5 0 0 1 0 1.1.5.5 0 0 1 0-1zM3.2 7c0-.3.2-.6.5-.6h21.4c.2 0 .5.3.5.6v2.2l-1 1V8c0-.3-.3-.5-.6-.5H4.8c-.3 0-.5.2-.5.5v13.4c0 .3.2.5.5.5H24c.3 0 .5-.2.5-.5v-9.7l1-1V23H3.3V7zM8 13.9A1.6 1.6 0 1 0 9 16.6l1.9 1 .6-.1 4-4.5 3.8 3 .7-.1 3.4-3.2v8.1H5.3V8.6h18.2v2.6l-3.8 3.6-4-3h-.2l-.4.1-4 4.5-1.5-.7v-.2c0-.9-.7-1.6-1.6-1.6zm.5 1.6a.5.5 0 0 1-1 0 .5.5 0 0 1 1 0zm3.2 8.5h5.4v.6c0 .3-.3.5-.6.5h-4.2a.5.5 0 0 1-.6-.5V24zm-10.6.6c0-.3.2-.6.5-.6h9v.6c0 .8.8 1.6 1.7 1.6h4.2c1 0 1.6-.8 1.6-1.6V24h9c.4 0 .6.3.6.6v2c0 .4-.2.6-.5.6H1.6a.5.5 0 0 1-.5-.5v-2.1z" />
        </symbol>
        <symbol id="icon-envelope" viewBox="0 0 43 32">
            <path
                d="M38.7 0H4a4 4 0 0 0-4 4v24a4 4 0 0 0 4 4h34.7a4 4 0 0 0 4-4V4a4 4 0 0 0-4-4zm0 2.7h.5L21.3 18.3 3.5 2.8l.5-.1h34.7zm0 26.6H4c-.7 0-1.3-.6-1.3-1.3V5.6L20.5 21c.2.2.5.3.8.3s.7 0 1-.3L40 5.6V28c0 .7-.6 1.3-1.3 1.3z" />
        </symbol>
        <symbol id="icon-facebook-g" viewBox="0 0 32 32">
            <path fill="#afb1b8" style="fill:var(--color3, #afb1b8)"
                d="M21.3 5.3h3v-5C23 0 21.6 0 20 0H20c-4.2 0-7.1 2.6-7.1 7.5V12H8.2v5.7H13V32h5.7V17.7H23l.7-5.7h-5.2V8c0-1.6.4-2.7 2.7-2.7z" />
        </symbol>
        <symbol id="icon-facebook-w" viewBox="0 0 32 32">
            <path fill="#fff" style="fill:var(--color5, #fff)"
                d="M21.3 5.3h3v-5C23 0 21.6 0 20 0H20c-4.2 0-7.1 2.6-7.1 7.5V12H8.2v5.7H13V32h5.7V17.7H23l.7-5.7h-5.2V8c0-1.6.4-2.7 2.7-2.7z" />
        </symbol>
        <symbol id="icon-foster-peters" viewBox="0 0 65 32">
            <path fill="#2196f3" style="fill:var(--color2, #2196f3)"
                d="M10 10c-1.8 0-3.3 1.3-3.3 3 0 1.5 1.5 2.9 3.3 2.9 1.8 0 3.3-1.4 3.3-3s-1.5-3-3.3-3zm24.4-1c0-2.2-1-4.4-2.8-6S27.4.5 25 .5c-2.6 0-5 1-6.8 2.5s-2.8 3.8-2.8 6v12.5s19.1-2 19.1-12.5zM0 25.6c0 1.5.7 3 2 4.1a7.3 7.3 0 0 0 9.4 0c1.2-1 2-2.6 2-4.1v-8.7S0 18.2 0 25.6zM6.7 27a2 2 0 0 1-1-.2c-.3-.2-.5-.4-.6-.7a1.4 1.4 0 0 1-.1-1l.4-.7 1-.5a2 2 0 0 1 1 .1l.7.6.3.9-.1.6-.4.5-.6.3a2 2 0 0 1-.6.1zm13.4-.8h-1.3v1.3h-.6v-3.3h2v.6h-1.4v.8h1.3v.6zm3.2-.3-.1.9c-.1.3-.3.4-.5.5-.2.2-.5.2-.7.2-.3 0-.5 0-.8-.2l-.4-.5c-.2-.3-.2-.5-.2-.8v-.2c0-.3 0-.6.2-.9a1.3 1.3 0 0 1 1.2-.7c.2 0 .5 0 .7.2l.5.5.1.9v.1zm-.6-.1c0-.4 0-.6-.2-.8a.6.6 0 0 0-1 0c-.2.2-.2.4-.2.8v.1l.1.8c.1.2.3.3.6.3.2 0 .4-.1.5-.3l.2-.8V26zm2.8.8-.1-.3-.5-.2-.6-.2c-.3-.2-.5-.5-.5-.8l.1-.5.5-.3a1.6 1.6 0 0 1 1.2 0l.4.4.2.5h-.7l-.1-.4h-.8l-.1.3.1.3.5.2c.4 0 .7.2.8.4l.3.6c0 .3-.1.5-.3.7s-.5.2-.9.2l-.7-.1c-.2 0-.3-.2-.4-.4a1 1 0 0 1-.2-.5h.7c0 .3.2.5.6.5h.4l.1-.4zm3.6-1.8h-1v2.7h-.7v-2.7h-1v-.6h2.7v.6zm2.3 1.3h-1.3v.8h1.6v.6h-2.2v-3.3h2.2v.6H30v.8h1.3v.5zm1.9.2h-.6v1.2H32v-3.3h1.3c.3 0 .6.1.8.3s.4.4.4.7c0 .2 0 .4-.2.6a1 1 0 0 1-.4.3l.7 1.4h-.7l-.7-1.2zm-.6-.5h.6c.1 0 .3 0 .3-.2l.2-.3-.1-.4-.4-.1h-.6v1zm4 .5v1.2h-.6v-3.3h1.3c.2 0 .4 0 .6.2.2 0 .3.2.4.4l.2.5c0 .3-.1.6-.3.8l-1 .2h-.5zm0-.5h.7l.4-.1.1-.4-.1-.4-.4-.1h-.6v1zm4.3.3h-1.3v.8h1.5v.6h-2.1v-3.3h2.1v.6h-1.5v.8H41v.5zm3.1-1.3h-1v2.7h-.6v-2.7h-1v-.6H44v.6zm2.4 1.3h-1.3v.8h1.5v.6h-2.2v-3.3h2.2v.6h-1.5v.8h1.3v.5zm1.8.2h-.6v1.2h-.6v-3.3h1.2c.4 0 .7.1.9.3s.3.4.3.7c0 .2 0 .4-.2.6a1 1 0 0 1-.4.3l.7 1.4h-.7l-.6-1.2zm-.6-.5h.6c.2 0 .3 0 .4-.2l.1-.3-.1-.4-.4-.1h-.6v1zm4 .8s0-.2-.2-.3l-.4-.2-.6-.2c-.4-.2-.5-.5-.5-.8l.1-.5.4-.3a1.6 1.6 0 0 1 1.3 0l.4.4.2.5h-.7c0-.2 0-.3-.2-.4h-.7l-.2.3c0 .1 0 .2.2.3l.5.2c.3 0 .6.2.8.4s.3.4.3.6c0 .3-.2.5-.4.7s-.5.2-.8.2l-.7-.1c-.2 0-.4-.2-.5-.4a1 1 0 0 1-.1-.5h.6c0 .3.2.5.7.5l.3-.1c.1 0 .2-.1.2-.3z" />
        </symbol>
        <symbol id="icon-instagram-g" viewBox="0 0 32 32">
            <path fill="#afb1b8" style="fill:var(--color3, #afb1b8)"
                d="M32 9.4c-.1-1.7-.4-2.9-.8-3.9s-1-2-1.8-2.8A8 8 0 0 0 26.6.9c-1-.5-2.2-.7-4-.8a108.2 108.2 0 0 0-17 .7c-1.1.5-2 1-2.9 1.9C2 3.5 1.3 4.4 1 5.5.5 6.5.2 7.7.2 9.4a108.2 108.2 0 0 0 .7 17 8 8 0 0 0 1.8 3c.8.7 1.8 1.4 2.9 1.8 1 .4 2.2.6 3.9.7a117.3 117.3 0 0 0 17-.7 8.2 8.2 0 0 0 4.7-4.7c.4-1 .7-2.2.8-3.9V9.4zm-3 13c0 1.6-.2 2.5-.5 3a5.3 5.3 0 0 1-3 3c-.6.3-1.4.6-3 .6a112.7 112.7 0 0 1-15.9-.5 5 5 0 0 1-1.8-1.2 5 5 0 0 1-1.2-1.8c-.2-.6-.5-1.5-.5-3a112.7 112.7 0 0 1 .5-16c.3-.6.7-1.3 1.2-1.8a5 5 0 0 1 1.8-1.1c.6-.3 1.5-.5 3-.6a114.2 114.2 0 0 1 16 .5 5 5 0 0 1 1.7 1.2 5 5 0 0 1 1.2 1.9c.3.5.5 1.4.6 3a112.7 112.7 0 0 1 0 12.9z" />
            <path fill="#afb1b8" style="fill:var(--color3, #afb1b8)"
                d="M16 7.8A8.2 8.2 0 0 0 7.9 16a8.2 8.2 0 0 0 16.5 0c0-4.5-3.7-8.2-8.2-8.2zm0 13.5a5.3 5.3 0 0 1 0-10.6 5.3 5.3 0 1 1 0 10.6zM26.6 7.5a2 2 0 0 1-3.8 0 2 2 0 0 1 3.8 0z" />
        </symbol>
        <symbol id="icon-instagram-w" viewBox="0 0 32 32">
            <path fill="#fff" style="fill:var(--color5, #fff)"
                d="M32 9.4c-.1-1.7-.4-2.9-.8-3.9s-1-2-1.8-2.8A8 8 0 0 0 26.6.9c-1-.5-2.2-.7-4-.8a108.2 108.2 0 0 0-17 .7c-1.1.5-2 1-2.9 1.9C2 3.5 1.3 4.4 1 5.5.5 6.5.2 7.7.2 9.4a108.2 108.2 0 0 0 .7 17 8 8 0 0 0 1.8 3c.8.7 1.8 1.4 2.9 1.8 1 .4 2.2.6 3.9.7a117.3 117.3 0 0 0 17-.7 8.2 8.2 0 0 0 4.7-4.7c.4-1 .7-2.2.8-3.9V9.4zm-3 13c0 1.6-.2 2.5-.5 3a5.3 5.3 0 0 1-3 3c-.6.3-1.4.6-3 .6a112.7 112.7 0 0 1-15.9-.5 5 5 0 0 1-1.8-1.2 5 5 0 0 1-1.2-1.8c-.2-.6-.5-1.5-.5-3a112.7 112.7 0 0 1 .5-16c.3-.6.7-1.3 1.2-1.8a5 5 0 0 1 1.8-1.1c.6-.3 1.5-.5 3-.6a114.2 114.2 0 0 1 16 .5 5 5 0 0 1 1.7 1.2 5 5 0 0 1 1.2 1.9c.3.5.5 1.4.6 3a112.7 112.7 0 0 1 0 12.9z" />
            <path fill="#fff" style="fill:var(--color5, #fff)"
                d="M16 7.8a8.2 8.2 0 1 0 0 16.4 8.2 8.2 0 0 0 0-16.4zm0 13.5a5.3 5.3 0 0 1 0-10.6 5.3 5.3 0 1 1 0 10.6zM26.6 7.5a2 2 0 0 1-3.8 0 2 2 0 0 1 3.8 0z" />
        </symbol>
        <symbol id="icon-linkedin-g" viewBox="0 0 32 32">
            <path fill="#afb1b8" style="fill:var(--color3, #afb1b8)"
                d="M32 32V20.3c0-5.8-1.2-10.2-8-10.2a7 7 0 0 0-6.2 3.4h-.1v-2.9h-6.4V32H18V21.4c0-2.8.6-5.5 4-5.5s3.5 3.2 3.5 5.7V32H32zM.5 10.6h6.7V32H.5V10.6zM3.8 0A3.8 3.8 0 0 0 0 3.8c0 2.2 1.7 4 3.8 4 2.2 0 3.9-1.8 3.9-4S6 0 3.8 0z" />
        </symbol>
        <symbol id="icon-linkedin-w" viewBox="0 0 32 32">
            <path fill="#fff" style="fill:var(--color5, #fff)"
                d="M32 32V20.3c0-5.8-1.2-10.2-8-10.2a7 7 0 0 0-6.2 3.4h-.1v-2.9h-6.4V32H18V21.4c0-2.8.6-5.5 4-5.5s3.5 3.2 3.5 5.7V32H32zM.5 10.6h6.7V32H.5V10.6zM3.8 0A3.8 3.8 0 0 0 0 3.8c0 2.2 1.7 4 3.8 4 2.2 0 3.9-1.8 3.9-4S6 0 3.8 0z" />
        </symbol>
        <symbol id="icon-smartphone" viewBox="0 0 20 32">
            <path
                d="M17 0H3a3 3 0 0 0-3 3v26a3 3 0 0 0 3 3h14a3 3 0 0 0 3-3V3a3 3 0 0 0-3-3zM3 2h14c.6 0 1 .4 1 1v21H2V3c0-.6.4-1 1-1zm14 28H3a1 1 0 0 1-1-1v-3h16v3c0 .6-.4 1-1 1z" />
            <path fill="#757575" style="fill:var(--color4, #757575)"
                d="M4.7 27.5a.9.9 0 0 1 0 1.3 1 1 0 0 1-1.4 0 .9.9 0 0 1 0-1.3 1 1 0 0 1 1.4 0z" />
        </symbol>
        <symbol id="icon-tag-line" viewBox="0 0 67 32">
            <path fill="#afb1b8" style="fill:var(--color3, #afb1b8)"
                d="M33.7 15.2a2 2 0 0 1-.4-1.4v-2c0-.7.1-1.1.4-1.5.3-.3.8-.5 1.5-.5.6 0 1.1.2 1.4.5.3.3.4.7.4 1.2v.5h-1.2v-1c0-.1 0-.2-.2-.3a.7.7 0 0 0-.3-.1h-.1l-.4.1-.2.3v3.7l.3.2a.6.6 0 0 0 .3 0h.4l.2-.4v-1H37v.6c0 .4-.2.8-.4 1.2-.3.3-.7.4-1.4.4s-1.2-.1-1.5-.5zm4.9 0c-.3-.3-.5-.7-.5-1.4v-2.1c0-.6.2-1 .5-1.4s.8-.5 1.5-.5c.6 0 1.1.2 1.4.5.3.3.5.8.5 1.4v2.1c0 .7-.2 1.1-.5 1.4s-.8.5-1.4.5-1.2-.1-1.5-.5zm2-.5c.1-.2.2-.4.1-.6v-2.7l-.1-.6-.2-.1a.6.6 0 0 0-.3 0 .6.6 0 0 0-.4 0l-.2.1-.1.6v2.7l.1.6.3.2a.8.8 0 0 0 .6 0l.2-.2zm2.8-4.8h1.2l1 4 1-4h1.2v5.7H47l-.1-4-1 4h-.7l-1-4v4h-1l.2-5.7zm5.9 0h2c1 0 1.6.5 1.6 1.6 0 1-.5 1.6-1.7 1.6h-.7v2.5h-1.2V10zm1.7 2.5a1 1 0 0 0 .6-.2c.2-.2.2-.4.2-.7V11l-.1-.2h-.2l-.5-.2h-.5v1.8h.5zm3.7-2.5H56l1.3 5.7h-1.1l-.3-1.3h-1.1l-.3 1.3h-1.1l1.3-5.7zm1.1 3.8-.5-2.5-.4 2.5h.9zm2.6-3.8h.8l1.7 3.3V9.9h1v5.7H61l-1.7-3.4v3.4h-1V10zm5.8 3.6L63 9.9H64l.8 2.3.8-2.3h1.1l-1.3 3.6v2.1h-1.2v-2.1zm-28.6 4.7v.3h-1v2.3h-.4v-2.3h-1v-.3h2.4zm3 2.6H38.4v-.1l-.4-.6h-1.3l-.3.6-.1.1h-.4l1.2-2.6h.5l1.2 2.6zm-2-1h1.2l-.5-1v-.3l-.1.1v.1l-.5 1.1zm4.2.7h.2a1.4 1.4 0 0 0 .4 0l.1-.1v-.6H41v-.3h.9v1l-.5.2a2.2 2.2 0 0 1-.7.1h-.6l-.5-.4-.3-.4V19l.3-.4.5-.3h.7a2.4 2.4 0 0 1 .6 0 1.3 1.3 0 0 1 .4.3v.1h-.5l-.2-.1h-.8a1 1 0 0 0-.6.5 1.2 1.2 0 0 0 0 1l.2.3a1 1 0 0 0 .9.2zm3.8 0H46v.3h-1.7v-2.6h.4v2.3zm2.7.3h-.4v-2.6h.4v2.6zm1.5-2.6h.1l1.8 2v-2h.3v2.6H50.7l-1.8-2v2h-.3v-2.6h.2zm5.3 0v.2h-1.5v1h1.2v.2h-1.2v.9h1.5v.3h-2v-2.6h2zM10.8 1.9 29 6.4V22l-18.3-4.5V2zM9.6.5v18l20.7 5V5.6L9.6.6z" />
            <path fill="#afb1b8" style="fill:var(--color3, #afb1b8)" d="M20.7 31.8 0 26.7V8.8L20.7 14v17.9z" />
            <path fill="#afb1b8" style="fill:var(--color3, #afb1b8)"
                d="M10 1.7 28 6l-7.6 6.7L2.2 8.3 10 1.7zM9.5.5 0 8.8 20.7 14l9.6-8.3L9.6.6zM22 30.8l8.4-7.3-8.4-2v9.3z" />
        </symbol>
        <symbol id="icon-tagline-here" viewBox="0 0 25 32">
            <path fill="#afb1b8" style="fill:var(--color3, #afb1b8)"
                d="M10.5 1.8H9c-2.4.1-4.6.7-6.6 1.7h.1-.3v13.7L3 17a23.3 23.3 0 0 1 6.7-1.2v1.8h-.7a20 20 0 0 0-4 .7H5c-1.7.4-3.2 1-4.6 1.8V2.5C2 1.7 3.5 1 5.2.6h.2C6.6.2 8.2 0 9.8 0h.2a18.2 18.2 0 0 1 3.3.4h-.1v1.8l-2.1-.4h-.6zm3.1 1.8h1.2c1.7 0 3.4-.2 5-.6h-.2c1.7-.4 3.2-1 4.6-1.8v17.2a18 18 0 0 1-4.7 2h-.1c-1.4.3-3 .5-4.6.6-1.2 0-2.4-.2-3.5-.5h.1V3.4a12.7 12.7 0 0 0 2.2.3zm8.8.1-.7.2-1.7.6c-1.5.4-3.3.6-5.2.6h-1.6v14h1.6a17 17 0 0 0 7.4-1.7l-.1.1.3-.1V3.7zM1.7 26a1 1 0 0 0-.7-.3 1 1 0 0 0-.4 0l-.5.6V29.5l.2.3.4.2h.7c.3-.2.6-.6.6-1v-.2h-.6v.4l-.2.1-.2.1-.3-.1v-2.9l.2-.1H1l.3.1v.6H2v-.3l-.1-.4a1 1 0 0 0-.2-.3zm3.6 0a1 1 0 0 0-1-.2 1 1 0 0 0-.6.5l-.1.4V29.4l.3.3.4.2.3.1c.3 0 .5-.1.7-.3l.2-.3.1-.4V26.3a1 1 0 0 0-.3-.3zM5 29l-.1.3a.4.4 0 0 1-.6 0 .4.4 0 0 1 0-.3V26.4a.4.4 0 0 1 .6 0 .4.4 0 0 1 .1.3V29zm5 1v-4.3h-.5L8.7 28l-.8-2.3h-.6V30H8v-2.6l.6 1.8h.3l.6-1.8V30h.6zm3.5-4-.3-.2h-1.4V30h.6v-1.7h.3l.6-.1.3-.3.2-.4v-1.1a1 1 0 0 0-.3-.4zm-.3 1.3v.2l-.2.2h-.6v-1.4h.6l.2.2v.8zm3.2-1.6h-.5l-1 4.3h.6l.2-1h.8l.2 1h.6l-1-4.3zm-.6 2.8.3-1.6.3 1.6h-.6zm4.5-.2-1-2.6h-.5V30h.6v-2.6l1 2.6h.5v-4.3h-.6v2.6zm3.7-2.6-.5 1.7-.5-1.7h-.7l.9 2.5V30h.6v-1.8l.8-2.5H24zM0 31.2h.3v.8h.2v-.8h.3V31H0v.2zm2.4-.2-.3 1h.2v-.2h.4l.1.2H3l-.3-1h-.3zm0 .6.2-.4v.4h-.2zm2.5 0H5v.1l-.2.1h-.2l-.1-.3c0-.2 0-.3.3-.3l.2.1h.2c0-.2-.2-.3-.4-.3l-.4.1a.5.5 0 0 0-.1.4l.1.4.3.1c.2 0 .4 0 .5-.2v-.3h-.4v.1zm2.4-.6h-.2v1h.7v-.2h-.5V31zm2.1 0h-.2v1h.2v-1zm2 .7-.3-.7h-.2v1h.2v-.7l.4.7h.2v-1h-.2v.7zm2-.2h.4v-.1h-.5v-.2h.5V31h-.7v1h.8v-.2h-.6v-.2zm4.4-.1h-.4V31h-.2v1h.2v-.4h.4v.4h.2v-1h-.2v.4zm1.8.1h.5v-.1h-.5v-.2h.6V31h-.7v1h.7v-.2h-.5v-.2zm2.6 0c.1 0 .2 0 .2-.2a.2.2 0 0 0 0-.2L22 31h-.5v1h.2v-.4h.2l.3.4h.2l-.1-.2-.2-.2zm-.2 0h-.2v-.3h.2a.5.5 0 0 1 .2 0v.2H22zm2 0h.6v-.1H24v-.2h.5V31h-.7v1h.7v-.2h-.5v-.2z" />
        </symbol>
        <symbol id="icon-twitter-g" viewBox="0 0 32 32">
            <path fill="#afb1b8" style="fill:var(--color3, #afb1b8)"
                d="M32 6c-1.1.6-2.4 1-3.7 1.1 1.3-.8 2.3-2 2.8-3.6-1.2.7-2.6 1.3-4 1.6h-.2a6.5 6.5 0 0 0-11.3 4.5c0 .5 0 1 .2 1.5A18.6 18.6 0 0 1 2.2 4.2c-.5 1-.9 2-.9 3.3 0 2.3 1.2 4.3 3 5.5-1.1 0-2.2-.4-3-.9v.1c0 3.2 2.2 5.8 5.2 6.5l-1.6.2-1.3-.1a6.6 6.6 0 0 0 6.1 4.5 13 13 0 0 1-8.1 2.8H-.2 0A18.5 18.5 0 0 0 28.7 9.5c1.3-1 2.4-2 3.3-3.4z" />
        </symbol>
        <symbol id="icon-twitter-w" viewBox="0 0 32 32">
            <path fill="#fff" style="fill:var(--color5, #fff)"
                d="M32 6c-1.1.6-2.4 1-3.7 1.1 1.3-.8 2.3-2 2.8-3.6-1.2.7-2.6 1.3-4 1.6h-.2a6.5 6.5 0 0 0-11.3 4.5c0 .5 0 1 .2 1.5A18.6 18.6 0 0 1 2.2 4.2c-.5 1-.9 2-.9 3.3 0 2.3 1.2 4.3 3 5.5-1.1 0-2.2-.4-3-.9v.1c0 3.2 2.2 5.8 5.2 6.5l-1.6.2-1.3-.1a6.6 6.6 0 0 0 6.1 4.5 13 13 0 0 1-8.1 2.8H-.2 0A18.5 18.5 0 0 0 28.7 9.5c1.3-1 2.4-2 3.3-3.4z" />
        </symbol>
        <symbol id="icon-yaco" viewBox="0 0 28 32">
            <path fill="#afb1b8" style="fill:var(--color3, #afb1b8)"
                d="M4 0 9 4.5H0v22h23.1V18l4.8 4.6V0H4.1zm19 17.5L9.3 4.7H23v12.8zm-4.3 5.7h-15V8.5h1v13.7h14v1zM7.2 29.3l-.5 1.2-.6-1.2h-.5l.9 1.6v.9h.4v-1l.8-1.5h-.5zm.7 2.5.2-.6h1l.2.6h.4l-1-2.5h-.3l-1 2.5H8zm.7-2 .3 1h-.7l.4-1zm2.2 1v.3l.1.5.6.2c.2 0 .4 0 .6-.2l.2.2h.4l-.3-.5.2-.7h-.4v.5l-.5-.6.1-.1.3-.3V30l-.1-.4a.6.6 0 0 0-.4-.2c-.2 0-.4 0-.5.2l-.2.4v.3l.3.3-.4.3zm1.1.5-.4.2-.3-.1V31l.1-.3.6.5zm-.4-1-.2-.4v-.2h.4l.1.2-.1.2-.2.2zm3.9 1.3.3-.6h-.4c0 .2-.1.3-.2.3l-.4.2-.4-.2-.1-.6v-.3l.1-.5c.1-.2.3-.2.5-.2h.3l.2.4h.4l-.3-.6c-.2-.2-.4-.2-.6-.2a1 1 0 0 0-.9.5l-.1.6V31.4c0 .2.3.3.4.4l.5.1c.3 0 .5 0 .7-.2zm2.5-.4.1-.6v-.1l-.1-.6a1 1 0 0 0-.4-.4l-.5-.2a1 1 0 0 0-.9.6l-.1.6v.1l.1.6.4.5.5.1.5-.1.4-.5zm-.5-1.3.2.6v.1c0 .3 0 .5-.2.6 0 .2-.2.3-.4.3s-.3-.1-.4-.3a1 1 0 0 1-.2-.6v-.1c0-.3 0-.5.2-.6 0-.2.2-.2.4-.2s.3 0 .4.2z" />
        </symbol>
    </defs>
</svg>